<?xml version="1.0" encoding="utf-8"?>
<!-- Generator: Adobe Illustrator 24.1.2, SVG Export Plug-In . SVG Version: 6.00 Build 0)  -->
<svg version="1.1" id="Layer_1" xmlns="http://www.w3.org/2000/svg" xmlns:xlink="http://www.w3.org/1999/xlink" x="0px" y="0px"
	 viewBox="0 0 880.78 870.7" style="enable-background:new 0 0 880.78 870.7;" xml:space="preserve">
<style type="text/css">
	.st0{fill:none;stroke:#000000;stroke-width:20;stroke-miterlimit:10;}
</style>
<path class="st0" d="M388.69,493.32c-34.4,38.43-73.31,94.22-73.31,150.01c0,0,0,50,125.01,50s125.01-50,125.01-50
	c0-100-125.01-200.01-125.01-200.01s-125.01-100-125.01-200.01c0,0,0-50,125.01-50s125.01,50,125.01,50
	c0,55.79-38.91,111.58-73.31,150.01"/>
<path d="M440.39,223.47c80.56,0,80.56,32.22,80.56,32.22c0,39.21-29.82,78.42-53.18,103.12c-14.86,15.71-39.9,15.72-54.76,0.01
	c-23.36-24.7-53.18-63.91-53.18-103.13C359.83,255.69,359.83,223.47,440.39,223.47z"/>
<path d="M440.39,662.98c80.56,0,80.56-32.22,80.56-32.22c0-39.21-29.82-78.42-53.18-103.12c-14.86-15.71-39.9-15.72-54.76-0.01
	c-23.36,24.7-53.18,63.91-53.18,103.13C359.83,630.76,359.83,662.98,440.39,662.98z"/>
<circle class="st0" cx="440.39" cy="443.32" r="339.62"/>
</svg>
